<svg xmlns="http://www.w3.org/2000/svg" width="1680" height="426" viewBox="0 0 1680 426" role="img" aria-labelledby="title desc">
  <title id="title">Pairwise scatter plots colored by V4 class</title>
  <desc id="desc">Pairwise scatter plots colored by V4 class</desc>
  <rect width="100%" height="100%" fill="white"/>
  <style>
    text { font-family: -apple-system, BlinkMacSystemFont, "Segoe UI", sans-serif; fill: #222; }
    .axis { stroke: #333; stroke-width: 2; }
    .grid { stroke: #d9d9d9; stroke-width: 1; }
    .tick { font-size: 16px; }
    .label { font-size: 20px; font-style: italic; }
    .panel { font-size: 18px; }
  </style>
<line class="grid" x1="62" y1="18" x2="62" y2="332"/><line class="grid" x1="62" y1="18" x2="536" y2="18"/><line class="grid" x1="180.5" y1="18" x2="180.5" y2="332"/><line class="grid" x1="62" y1="96.5" x2="536" y2="96.5"/><line class="grid" x1="299" y1="18" x2="299" y2="332"/><line class="grid" x1="62" y1="175" x2="536" y2="175"/><line class="grid" x1="417.5" y1="18" x2="417.5" y2="332"/><line class="grid" x1="62" y1="253.5" x2="536" y2="253.5"/><line class="grid" x1="536" y1="18" x2="536" y2="332"/><line class="grid" x1="62" y1="332" x2="536" y2="332"/><line class="axis" x1="62" y1="332" x2="536" y2="332"/><line class="axis" x1="62" y1="18" x2="62" y2="332"/><text class="label" x="299" y="376" text-anchor="middle">V₁</text><text class="label" transform="translate(20 175) rotate(-90)" text-anchor="middle">V₂</text><text class="panel" x="280" y="408" text-anchor="middle">(a) V₂ vs. V₁</text><circle cx="180.5" cy="206.39999999999998" r="7" fill="white" stroke="#c43c39" stroke-width="3"/><circle cx="180.5" cy="49.39999999999998" r="7" fill="white" stroke="#c43c39" stroke-width="3"/><circle cx="417.5" cy="175" r="7" fill="white" stroke="#c43c39" stroke-width="3"/><path d="M 409.5 175 H 425.5 M 417.5 167 V 183" stroke="#2866b1" stroke-width="3"/><path d="M 409.5 269.2 H 425.5 M 417.5 261.2 V 277.2" stroke="#2866b1" stroke-width="3"/><path d="M 172.5 300.6 H 188.5 M 180.5 292.6 V 308.6" stroke="#2866b1" stroke-width="3"/><line class="grid" x1="622" y1="18" x2="622" y2="332"/><line class="grid" x1="622" y1="18" x2="1096" y2="18"/><line class="grid" x1="740.5" y1="18" x2="740.5" y2="332"/><line class="grid" x1="622" y1="96.5" x2="1096" y2="96.5"/><line class="grid" x1="859" y1="18" x2="859" y2="332"/><line class="grid" x1="622" y1="175" x2="1096" y2="175"/><line class="grid" x1="977.5" y1="18" x2="977.5" y2="332"/><line class="grid" x1="622" y1="253.5" x2="1096" y2="253.5"/><line class="grid" x1="1096" y1="18" x2="1096" y2="332"/><line class="grid" x1="622" y1="332" x2="1096" y2="332"/><line class="axis" x1="622" y1="332" x2="1096" y2="332"/><line class="axis" x1="622" y1="18" x2="622" y2="332"/><text class="label" x="859" y="376" text-anchor="middle">V₂</text><text class="label" transform="translate(580 175) rotate(-90)" text-anchor="middle">V₃</text><text class="panel" x="840" y="408" text-anchor="middle">(b) V₃ vs. V₂</text><circle cx="811.6" cy="269.2" r="7" fill="white" stroke="#c43c39" stroke-width="3"/><circle cx="1048.6" cy="175" r="7" fill="white" stroke="#c43c39" stroke-width="3"/><circle cx="859" cy="237.8" r="7" fill="white" stroke="#c43c39" stroke-width="3"/><path d="M 851 49.39999999999998 H 867 M 859 41.39999999999998 V 57.39999999999998" stroke="#2866b1" stroke-width="3"/><path d="M 708.8 206.39999999999998 H 724.8 M 716.8 198.39999999999998 V 214.39999999999998" stroke="#2866b1" stroke-width="3"/><path d="M 661.4 80.79999999999998 H 677.4 M 669.4 72.79999999999998 V 88.79999999999998" stroke="#2866b1" stroke-width="3"/><line class="grid" x1="1182" y1="18" x2="1182" y2="332"/><line class="grid" x1="1182" y1="18" x2="1656" y2="18"/><line class="grid" x1="1300.5" y1="18" x2="1300.5" y2="332"/><line class="grid" x1="1182" y1="96.5" x2="1656" y2="96.5"/><line class="grid" x1="1419" y1="18" x2="1419" y2="332"/><line class="grid" x1="1182" y1="175" x2="1656" y2="175"/><line class="grid" x1="1537.5" y1="18" x2="1537.5" y2="332"/><line class="grid" x1="1182" y1="253.5" x2="1656" y2="253.5"/><line class="grid" x1="1656" y1="18" x2="1656" y2="332"/><line class="grid" x1="1182" y1="332" x2="1656" y2="332"/><line class="axis" x1="1182" y1="332" x2="1656" y2="332"/><line class="axis" x1="1182" y1="18" x2="1182" y2="332"/><text class="label" x="1419" y="376" text-anchor="middle">V₃</text><text class="label" transform="translate(1140 175) rotate(-90)" text-anchor="middle">V₁</text><text class="panel" x="1400" y="408" text-anchor="middle">(c) V₁ vs. V₃</text><circle cx="1276.8" cy="253.5" r="7" fill="white" stroke="#c43c39" stroke-width="3"/><circle cx="1419" cy="253.5" r="7" fill="white" stroke="#c43c39" stroke-width="3"/><circle cx="1324.2" cy="96.5" r="7" fill="white" stroke="#c43c39" stroke-width="3"/><path d="M 1600.6 96.5 H 1616.6 M 1608.6 88.5 V 104.5" stroke="#2866b1" stroke-width="3"/><path d="M 1363.6 96.5 H 1379.6 M 1371.6 88.5 V 104.5" stroke="#2866b1" stroke-width="3"/><path d="M 1553.2 253.5 H 1569.2 M 1561.2 245.5 V 261.5" stroke="#2866b1" stroke-width="3"/>
</svg>