<svg xmlns="http://www.w3.org/2000/svg" width="840" height="520" viewBox="0 0 840 520" role="img" aria-labelledby="title desc">
  <title id="title">Shapes with different side counts, widths, heights, and standing classifications</title>
  <desc id="desc">Shapes with different side counts, widths, heights, and standing classifications</desc>
  <rect width="100%" height="100%" fill="white"/>
  <style>
    text { font-family: -apple-system, BlinkMacSystemFont, "Segoe UI", sans-serif; fill: #222; }
    .axis { stroke: #333; stroke-width: 2; }
    .grid { stroke: #d9d9d9; stroke-width: 1; }
    .tick { font-size: 16px; }
    .label { font-size: 20px; font-style: italic; }
    .panel { font-size: 18px; }
  </style>
<line class="grid" x1="20" y1="20" x2="20" y2="500"/><line class="grid" x1="60" y1="20" x2="60" y2="500"/><line class="grid" x1="100" y1="20" x2="100" y2="500"/><line class="grid" x1="140" y1="20" x2="140" y2="500"/><line class="grid" x1="180" y1="20" x2="180" y2="500"/><line class="grid" x1="220" y1="20" x2="220" y2="500"/><line class="grid" x1="260" y1="20" x2="260" y2="500"/><line class="grid" x1="300" y1="20" x2="300" y2="500"/><line class="grid" x1="340" y1="20" x2="340" y2="500"/><line class="grid" x1="380" y1="20" x2="380" y2="500"/><line class="grid" x1="420" y1="20" x2="420" y2="500"/><line class="grid" x1="460" y1="20" x2="460" y2="500"/><line class="grid" x1="500" y1="20" x2="500" y2="500"/><line class="grid" x1="540" y1="20" x2="540" y2="500"/><line class="grid" x1="580" y1="20" x2="580" y2="500"/><line class="grid" x1="620" y1="20" x2="620" y2="500"/><line class="grid" x1="660" y1="20" x2="660" y2="500"/><line class="grid" x1="700" y1="20" x2="700" y2="500"/><line class="grid" x1="740" y1="20" x2="740" y2="500"/><line class="grid" x1="780" y1="20" x2="780" y2="500"/><line class="grid" x1="820" y1="20" x2="820" y2="500"/><line class="grid" x1="20" y1="20" x2="820" y2="20"/><line class="grid" x1="20" y1="60" x2="820" y2="60"/><line class="grid" x1="20" y1="100" x2="820" y2="100"/><line class="grid" x1="20" y1="140" x2="820" y2="140"/><line class="grid" x1="20" y1="180" x2="820" y2="180"/><line class="grid" x1="20" y1="220" x2="820" y2="220"/><line class="grid" x1="20" y1="260" x2="820" y2="260"/><line class="grid" x1="20" y1="300" x2="820" y2="300"/><line class="grid" x1="20" y1="340" x2="820" y2="340"/><line class="grid" x1="20" y1="380" x2="820" y2="380"/><line class="grid" x1="20" y1="420" x2="820" y2="420"/><line class="grid" x1="20" y1="460" x2="820" y2="460"/><line class="grid" x1="20" y1="500" x2="820" y2="500"/><polygon points="45,440 205,440 205,360" fill="white" stroke="#c43c39" stroke-width="4"/><rect x="225" y="80" width="200" height="360" fill="#b7b7b7" stroke="#2866b1" stroke-width="4"/><polygon points="445,440 805,440 625,240" fill="white" stroke="#c43c39" stroke-width="4"/><polygon points="45,200 125,200 45,40" fill="#b7b7b7" stroke="#2866b1" stroke-width="4"/><rect x="225" y="280" width="200" height="120" fill="white" stroke="#c43c39" stroke-width="4"/><rect x="585" y="120" width="40" height="320" fill="#b7b7b7" stroke="#2866b1" stroke-width="4"/>
</svg>