<svg xmlns="http://www.w3.org/2000/svg" width="1000" height="520" viewBox="0 0 1000 520" role="img" aria-labelledby="title desc">
  <title id="title">A wide building that is nevertheless described as standing architecture</title>
  <desc id="desc">A wide building that is nevertheless described as standing architecture</desc>
  <rect width="100%" height="100%" fill="white"/>
  <style>
    text { font-family: -apple-system, BlinkMacSystemFont, "Segoe UI", sans-serif; fill: #222; }
    .axis { stroke: #333; stroke-width: 2; }
    .grid { stroke: #d9d9d9; stroke-width: 1; }
    .tick { font-size: 16px; }
    .label { font-size: 20px; font-style: italic; }
    .panel { font-size: 18px; }
  </style>
<line class="grid" x1="20" y1="20" x2="20" y2="500"/><line class="grid" x1="70" y1="20" x2="70" y2="500"/><line class="grid" x1="120" y1="20" x2="120" y2="500"/><line class="grid" x1="170" y1="20" x2="170" y2="500"/><line class="grid" x1="220" y1="20" x2="220" y2="500"/><line class="grid" x1="270" y1="20" x2="270" y2="500"/><line class="grid" x1="320" y1="20" x2="320" y2="500"/><line class="grid" x1="370" y1="20" x2="370" y2="500"/><line class="grid" x1="420" y1="20" x2="420" y2="500"/><line class="grid" x1="470" y1="20" x2="470" y2="500"/><line class="grid" x1="520" y1="20" x2="520" y2="500"/><line class="grid" x1="570" y1="20" x2="570" y2="500"/><line class="grid" x1="620" y1="20" x2="620" y2="500"/><line class="grid" x1="670" y1="20" x2="670" y2="500"/><line class="grid" x1="720" y1="20" x2="720" y2="500"/><line class="grid" x1="770" y1="20" x2="770" y2="500"/><line class="grid" x1="820" y1="20" x2="820" y2="500"/><line class="grid" x1="870" y1="20" x2="870" y2="500"/><line class="grid" x1="920" y1="20" x2="920" y2="500"/><line class="grid" x1="970" y1="20" x2="970" y2="500"/><line class="grid" x1="20" y1="20" x2="980" y2="20"/><line class="grid" x1="20" y1="70" x2="980" y2="70"/><line class="grid" x1="20" y1="120" x2="980" y2="120"/><line class="grid" x1="20" y1="170" x2="980" y2="170"/><line class="grid" x1="20" y1="220" x2="980" y2="220"/><line class="grid" x1="20" y1="270" x2="980" y2="270"/><line class="grid" x1="20" y1="320" x2="980" y2="320"/><line class="grid" x1="20" y1="370" x2="980" y2="370"/><line class="grid" x1="20" y1="420" x2="980" y2="420"/><line class="grid" x1="20" y1="470" x2="980" y2="470"/><rect x="80" y="260" width="210" height="200" fill="white" stroke="#2866b1" stroke-width="4"/><rect x="295" y="260" width="625" height="200" fill="white" stroke="#2866b1" stroke-width="4"/><rect x="60" y="80" width="880" height="180" fill="#e7eef7" stroke="#2866b1" stroke-width="4"/><line x1="60" y1="80" x2="240" y2="260" stroke="#91add0" stroke-width="2"/><line x1="100" y1="80" x2="280" y2="260" stroke="#91add0" stroke-width="2"/><line x1="140" y1="80" x2="320" y2="260" stroke="#91add0" stroke-width="2"/><line x1="180" y1="80" x2="360" y2="260" stroke="#91add0" stroke-width="2"/><line x1="220" y1="80" x2="400" y2="260" stroke="#91add0" stroke-width="2"/><line x1="260" y1="80" x2="440" y2="260" stroke="#91add0" stroke-width="2"/><line x1="300" y1="80" x2="480" y2="260" stroke="#91add0" stroke-width="2"/><line x1="340" y1="80" x2="520" y2="260" stroke="#91add0" stroke-width="2"/><line x1="380" y1="80" x2="560" y2="260" stroke="#91add0" stroke-width="2"/><line x1="420" y1="80" x2="600" y2="260" stroke="#91add0" stroke-width="2"/><line x1="460" y1="80" x2="640" y2="260" stroke="#91add0" stroke-width="2"/><line x1="500" y1="80" x2="680" y2="260" stroke="#91add0" stroke-width="2"/><line x1="540" y1="80" x2="720" y2="260" stroke="#91add0" stroke-width="2"/><line x1="580" y1="80" x2="760" y2="260" stroke="#91add0" stroke-width="2"/><line x1="620" y1="80" x2="800" y2="260" stroke="#91add0" stroke-width="2"/><line x1="660" y1="80" x2="840" y2="260" stroke="#91add0" stroke-width="2"/><line x1="700" y1="80" x2="880" y2="260" stroke="#91add0" stroke-width="2"/><line x1="740" y1="80" x2="920" y2="260" stroke="#91add0" stroke-width="2"/><line x1="780" y1="80" x2="960" y2="260" stroke="#91add0" stroke-width="2"/><line x1="820" y1="80" x2="1000" y2="260" stroke="#91add0" stroke-width="2"/><line x1="860" y1="80" x2="1040" y2="260" stroke="#91add0" stroke-width="2"/><line x1="900" y1="80" x2="1080" y2="260" stroke="#91add0" stroke-width="2"/><polygon points="250,260 720,260 485,120" fill="white" stroke="#2866b1" stroke-width="4"/><rect x="375" y="300" width="105" height="160" fill="white" stroke="#2866b1" stroke-width="4"/><rect x="485" y="300" width="105" height="160" fill="white" stroke="#2866b1" stroke-width="4"/><rect x="135" y="310" width="40" height="105" fill="white" stroke="#2866b1" stroke-width="4"/><rect x="180" y="310" width="40" height="105" fill="white" stroke="#2866b1" stroke-width="4"/><rect x="735" y="310" width="40" height="105" fill="white" stroke="#2866b1" stroke-width="4"/><rect x="780" y="310" width="40" height="105" fill="white" stroke="#2866b1" stroke-width="4"/><line x1="45" y1="462" x2="955" y2="462" stroke="#2866b1" stroke-width="5"/>
</svg>